<svg xmlns="http://www.w3.org/2000/svg" version="1.1" xmlns:xlink="http://www.w3.org/1999/xlink" width="512" height="512" x="0" y="0" viewBox="0 0 24 24" style="enable-background:new 0 0 512 512" xml:space="preserve"><g><path d="M8.5 7C3.813 7 0 10.813 0 15.5S3.813 24 8.5 24s8.5-3.813 8.5-8.5S13.187 7 8.5 7Zm3.5 7h-1v1a1 1 0 0 1-2 0v-1H8a1 1 0 0 1 0-2h1v-1a1 1 0 0 1 2 0v1h1a1 1 0 0 1 0 2Zm11.915-6.718c.554 3.961-1.645 7.491-4.953 8.973.018-.251.038-.501.038-.756 0-2.455-.853-4.71-2.27-6.5H17s1 0 1-1v-1h1a1 1 0 0 0 0-2h-1v-1a1 1 0 0 0-2 0v1h-1a1 1 0 0 0-1 1v.573a10.419 10.419 0 0 0-5.5-1.573c-.255 0-.505.02-.756.038C9.227 1.73 12.757-.468 16.718.085c3.69.516 6.681 3.507 7.197 7.197Z" fill="#37459a" opacity="1" data-original="#000000"></path></g></svg>