<svg xmlns="http://www.w3.org/2000/svg" version="1.1" xmlns:xlink="http://www.w3.org/1999/xlink" width="512" height="512" x="0" y="0" viewBox="0 0 24 24" style="enable-background:new 0 0 512 512" xml:space="preserve" class=""><g><path d="m1.056 22.611 2.011.625c.024.01.045.024.07.032s.05.006.075.013l2.1.652a1.5 1.5 0 0 0 .888-2.866l-.644-.2L6.2 19a5.153 5.153 0 0 0 4.955-3.7L12 12.811l.818 2.41A5.192 5.192 0 0 0 17.8 19l.647 1.869-.644.2a1.5 1.5 0 0 0 .888 2.866l2.1-.652c.025-.007.05 0 .075-.013s.046-.022.07-.032l2.011-.625a1.5 1.5 0 1 0-.888-2.865l-.746.231-.643-1.856a5.085 5.085 0 0 0 2.118-5.753l-1.692-5A3.33 3.33 0 0 0 17 5.122l-3.55.984a3.3 3.3 0 0 0-1.45.855 3.315 3.315 0 0 0-1.448-.856L7 5.123a3.31 3.31 0 0 0-4.08 2.2l-1.729 5.121a5.088 5.088 0 0 0 2.142 5.677l-.643 1.856-.746-.231a1.5 1.5 0 1 0-.888 2.865ZM14.041 9.16a.336.336 0 0 1 .208-.16l3.55-.984A.35.35 0 0 1 17.89 8a.369.369 0 0 1 .346.283L19.157 11h-4.6l-.538-1.587a.319.319 0 0 1 .022-.253ZM6.107 8a.374.374 0 0 1 .094.013L9.751 9a.336.336 0 0 1 .208.163.308.308 0 0 1 .041.204L9.447 11h-4.6l.933-2.76A.343.343 0 0 1 6.107 8ZM16.5 4a1.5 1.5 0 0 0 1.061-.439l1-1A1.5 1.5 0 0 0 16.439.439l-1 1A1.5 1.5 0 0 0 16.5 4ZM6.439 3.561a1.5 1.5 0 0 0 2.122-2.122l-1-1a1.5 1.5 0 0 0-2.122 2.122ZM12 4a1.5 1.5 0 0 0 1.5-1.5v-1a1.5 1.5 0 0 0-3 0v1A1.5 1.5 0 0 0 12 4Z" fill="#874e0d" opacity="1" data-original="#000000" class=""></path></g></svg>