<svg xmlns="http://www.w3.org/2000/svg" version="1.1" xmlns:xlink="http://www.w3.org/1999/xlink" width="512" height="512" x="0" y="0" viewBox="0 0 24 24" style="enable-background:new 0 0 512 512" xml:space="preserve"><g><path d="M11 22C5.66 22 1.03 18.04.031 12.993c-.224-1.134.804-2.162 1.938-1.938C7.016 12.054 11 16.659 11 21.999Zm5.995-10.947c-.168-2.642-1.64-5.558-3.544-7.932a1.86 1.86 0 0 0-2.902 0c-1.904 2.374-3.377 5.29-3.544 7.932A13.084 13.084 0 0 1 12 17a13.084 13.084 0 0 1 4.995-5.947Zm5.036.003C16.984 12.055 13 16.66 13 22c5.34 0 9.97-3.96 10.969-9.007.224-1.134-.804-2.162-1.938-1.938Z" fill="#745db1" opacity="1" data-original="#000000"></path></g></svg>