<svg xmlns="http://www.w3.org/2000/svg" version="1.1" xmlns:xlink="http://www.w3.org/1999/xlink" width="512" height="512" x="0" y="0" viewBox="0 0 24 24" style="enable-background:new 0 0 512 512" xml:space="preserve"><g><path d="M19.786 5.272a6.971 6.971 0 0 1-1.057 1.38c-1.36 1.36-3.138 1.94-4.485 2.187a.995.995 0 0 1-1.163-.904.99.99 0 0 1 .805-1.063c1.09-.198 2.442-.647 3.429-1.634 1.144-1.144 1.552-2.768 1.695-3.915A1.172 1.172 0 0 0 17.703.016c-1.147.142-2.771.551-3.915 1.695-.584.584-.991 1.311-1.254 2.017-.651-2.206-1.76-3.345-1.821-3.406A.998.998 0 0 0 9.307.31a.973.973 0 0 0-.022 1.386c.057.06 1.393 1.494 1.666 4.329l.014 1.122c-.388-1.448-1.231-2.609-2.086-3.464a1.881 1.881 0 0 0-2.23-.306C2.838 5.482.408 9.775 1.07 14.566c.675 4.89 4.691 8.799 9.595 9.359 6.655.761 12.296-4.424 12.296-10.926 0-3.013-1.214-5.741-3.176-7.728ZM13.5 15a1.5 1.5 0 1 1 .001-3.001A1.5 1.5 0 0 1 13.5 15Zm3 4a1.5 1.5 0 1 1 .001-3.001A1.5 1.5 0 0 1 16.5 19Zm2-4a1.5 1.5 0 1 1 .001-3.001A1.5 1.5 0 0 1 18.5 15Z" fill="#c46000" opacity="1" data-original="#000000"></path></g></svg>