<svg xmlns="http://www.w3.org/2000/svg" version="1.1" xmlns:xlink="http://www.w3.org/1999/xlink" width="512" height="512" x="0" y="0" viewBox="0 0 24 24" style="enable-background:new 0 0 512 512" xml:space="preserve" class=""><g><path d="M23.466 8.737a1.823 1.823 0 0 1-2.578 0c-.242-.242-.556-.624-.896-1.061-.04 1.581-.598 3.346-1.117 4.323a.99.99 0 0 1-1.752 0c-.518-.978-1.077-2.742-1.117-4.323-.34.437-.654.819-.896 1.061a1.823 1.823 0 1 1-2.578-2.578c.712-.712 2.895-1.16 5.466-1.16s4.754.448 5.466 1.16.712 1.866 0 2.578zM20 3c0-.297-.069-.576-.185-.829.131-.084.276-.159.45-.207a.999.999 0 1 0-.531-1.927 3.623 3.623 0 0 0-1.653.972c-.028-.001-.053-.008-.081-.008s-.054.007-.081.008a3.623 3.623 0 0 0-1.653-.972.997.997 0 0 0-1.229.698.999.999 0 0 0 .698 1.229c.175.048.319.123.45.207A1.981 1.981 0 0 0 16 3a2 2 0 0 0 4 0zM5.973 13.75A1.5 1.5 0 0 0 4.674 13H2.558a1.5 1.5 0 0 0-1.299.75L.201 15.584a1.5 1.5 0 0 0 0 1.5l1.058 1.833a1.5 1.5 0 0 0 1.299.75h2.117a1.5 1.5 0 0 0 1.299-.75l1.058-1.833a1.5 1.5 0 0 0 0-1.5zm2.792-7.833a1.5 1.5 0 0 0 1.299.75h.023a3.79 3.79 0 0 1 1.032-1.92c.684-.684 1.761-1.102 2.91-1.359-.005-.048-.02-.093-.023-.142a2.973 2.973 0 0 1-.92-2.924A1.476 1.476 0 0 0 12.18 0h-2.116a1.5 1.5 0 0 0-1.299.75L7.706 2.584a1.502 1.502 0 0 0 0 1.501l1.059 1.833zm4.714 12.166a1.5 1.5 0 0 0-1.299-.749h-2.117a1.5 1.5 0 0 0-1.299.75l-1.059 1.833a1.502 1.502 0 0 0 0 1.501l1.059 1.833a1.5 1.5 0 0 0 1.299.75h2.116a1.5 1.5 0 0 0 1.299-.75l1.059-1.834a1.502 1.502 0 0 0 0-1.501l-1.059-1.833zm7.506-4.333a1.492 1.492 0 0 0-.52-.527 2.982 2.982 0 0 1-4.286.684l-.968 1.676a1.5 1.5 0 0 0 0 1.5l1.059 1.833a1.5 1.5 0 0 0 1.299.75h2.116a1.5 1.5 0 0 0 1.299-.75l1.058-1.833a1.5 1.5 0 0 0 0-1.5l-1.058-1.834zM5.973 5.083a1.5 1.5 0 0 0-1.299-.75H2.558a1.5 1.5 0 0 0-1.299.75L.201 6.916a1.5 1.5 0 0 0 0 1.5l1.058 1.834a1.5 1.5 0 0 0 1.299.75h2.117a1.5 1.5 0 0 0 1.299-.75l1.058-1.833a1.5 1.5 0 0 0 0-1.5L5.973 5.084zm8.537 6.118a3.82 3.82 0 0 1-3.391-1.05 3.776 3.776 0 0 1-.904-1.485h-.152a1.5 1.5 0 0 0-1.299.75L7.705 11.25a1.502 1.502 0 0 0 0 1.501l1.059 1.833a1.5 1.5 0 0 0 1.299.75h2.116a1.5 1.5 0 0 0 1.299-.75l1.059-1.834a1.502 1.502 0 0 0 0-1.501l-.028-.048z" fill="#8a6508" opacity="1" data-original="#000000" class=""></path></g></svg>