<svg xmlns="http://www.w3.org/2000/svg" version="1.1" xmlns:xlink="http://www.w3.org/1999/xlink" width="512" height="512" x="0" y="0" viewBox="0 0 24 24" style="enable-background:new 0 0 512 512" xml:space="preserve" class=""><g><path d="M10.853 10.147c0 .634 1.147 1.912 1.147 1.912s-1.702-.233-2.227.122a1.147 1.147 0 1 0 1.286 1.9c.525-.355.94-2.022.94-2.022s.416 1.667.94 2.022c.622.439 1.569.107 1.734-.645 1.524.605 3.896 1.565 6.442 1.203 1.042.971 1.264 2.044 1.277 2.737.009.476-.24.919-.66 1.144-.764.408-2.226.833-4.125-.293-1.228-.727-2.758-2.173-4.102-3.583.528 1.875.993 3.928.993 5.355 0 2.183-1.085 3.35-1.825 3.807a1.278 1.278 0 0 1-1.35 0c-.74-.458-1.825-1.625-1.825-3.807 0-1.428.464-3.48.993-5.355-1.344 1.41-2.873 2.856-4.102 3.583-1.901 1.126-3.363.701-4.127.292a1.264 1.264 0 0 1-.66-1.147c.016-.87.361-2.335 2.239-3.447 1.27-.752 3.369-1.418 5.306-1.926-1.938-.508-4.036-1.173-5.306-1.926-1.878-1.112-2.222-2.577-2.239-3.447a1.278 1.278 0 0 1 .688-1.161c.624-.327 1.694-.653 3.075-.174.993 2.081 2.471 3.616 3.926 4.771-1.01-1.648-2.523-4.136-3.282-8.905A1.001 1.001 0 0 1 7.985.843c.462 2.909 1.207 4.844 1.942 6.293-.255-1.156-.43-2.263-.43-3.135C9.497 1.82 10.58.653 11.32.195a1.268 1.268 0 0 1 1.333-.01c.55.338 1.3 1.127 1.649 2.352-1.435 2.206-1.911 4.935-2.144 6.477a1.147 1.147 0 0 0-1.307 1.135zm13.075.48a1.001 1.001 0 0 0-1.301-.556c-2.397.963-4.171 1.246-5.675 1.323 1.235-.392 2.39-.838 3.205-1.321 1.878-1.112 2.222-2.577 2.239-3.447a1.265 1.265 0 0 0-.66-1.147c-.764-.409-2.226-.834-4.127.292a9.117 9.117 0 0 0-.727.49l2.9-3.639a1.001 1.001 0 0 0-1.411-1.401c-3.443 2.785-4.82 5.332-5.826 7.192l-.385.598c.539.098.988.562.987 1.135 0 .634-1.147 1.912-1.147 1.912s1.702-.233 2.227.122c.413.28.575.779.456 1.236l.019-.009v.006c.38.005.754.012 1.149.012 1.865 0 4.186-.157 7.521-1.497a1 1 0 0 0 .555-1.301z" fill="#964414" opacity="1" data-original="#000000" class=""></path></g></svg>