<svg xmlns="http://www.w3.org/2000/svg" version="1.1" xmlns:xlink="http://www.w3.org/1999/xlink" width="512" height="512" x="0" y="0" viewBox="0 0 24 24" style="enable-background:new 0 0 512 512" xml:space="preserve"><g><path d="M23 8c-1.855 0-3.495-.012-4.792-.795l3.5-3.5a1 1 0 1 0-1.415-1.415l-3.486 3.489C16.08 4.543 16 2.972 16 1a1 1 0 0 0-1-1c-1.673.08-.844 2.919-.822 4.123C7.342.2 2.906 7.4.837 13.455c-2.961 8.775 2.131 12.345 9.708 9.709 6.045-2.067 13.24-6.5 9.345-13.322 1.122-.015 4.016.849 4.11-.842a1 1 0 0 0-1-1ZM8.766 7.382a1.309 1.309 0 0 1 1.851 1.851 5.4 5.4 0 0 1-1.968.752.527.527 0 0 1-.635-.636 5.4 5.4 0 0 1 .752-1.967Zm-2.15 11.853a5.417 5.417 0 0 1-1.967.752.527.527 0 0 1-.635-.636 5.418 5.418 0 0 1 .751-1.967 1.309 1.309 0 0 1 1.851 1.851Zm2-5a5.4 5.4 0 0 1-1.967.752.527.527 0 0 1-.635-.636 5.4 5.4 0 0 1 .752-1.967 1.309 1.309 0 0 1 1.85 1.85Zm3 3a5.4 5.4 0 0 1-1.967.752.527.527 0 0 1-.636-.635 5.417 5.417 0 0 1 .752-1.967 1.309 1.309 0 0 1 1.852 1.849Zm2-5a5.4 5.4 0 0 1-1.967.752.526.526 0 0 1-.635-.635 5.4 5.4 0 0 1 .752-1.967 1.308 1.308 0 0 1 1.851 1.848Zm3 3a5.4 5.4 0 0 1-1.968.752.527.527 0 0 1-.635-.635 5.4 5.4 0 0 1 .752-1.968 1.309 1.309 0 0 1 1.853 1.85Z" fill="#b72836" opacity="1" data-original="#000000"></path></g></svg>