<svg xmlns="http://www.w3.org/2000/svg" version="1.1" xmlns:xlink="http://www.w3.org/1999/xlink" width="512" height="512" x="0" y="0" viewBox="0 0 24 24" style="enable-background:new 0 0 512 512" xml:space="preserve" class=""><g><path d="M22 2H2a1 1 0 0 1 0-2h20a1 1 0 0 1 0 2Zm-6.5 2c-.827 0-1.5.673-1.5 1.5V9a1 1 0 0 1-2 0V5.5c0-.827-.673-1.5-1.5-1.5S9 4.673 9 5.5V13a1 1 0 1 1-2 0V5.5C7 4.673 6.327 4 5.5 4H1.959C.909 5.724 0 7.818 0 9.905c0 4.213 2.637 9.206 3.771 11.156C4.824 22.874 6.803 24 8.934 24h6.134c2.131 0 4.109-1.126 5.163-2.938 1.134-1.951 3.771-6.943 3.771-11.157 0-2.087-.909-4.181-1.959-5.905h-6.541Z" fill="#a97c10" opacity="1" data-original="#000000" class=""></path></g></svg>